:SAMPLES-PER-SECOND 30
:FULLY-SPECIFIED
:DEGREES
353
root  -59.8221 39.5988 -4.27093 -91.1141 85.9608 -90.6087
RightUpLeg  -17.5851 -19.9078 6.2976
RightLeg  26.8673 -1.98979 -1.23062
RightFoot  -8.8861 0.0315479 -4.30869
RightToes  -1.33073e-015 0 -3.6325e-017
Spine  16.1994 -2.17955 13.3047
Spine1  5.70538 -1.1817 4.73157
HEad  7.54679 -2.55451 -3.49506
LeftShoulder1  8.31029 -12.4765 -45.3273
LeftArm  -17.1636 19.3427 -25.3932
LeftForeArm  32.3794 -22.76 -3.24806
LeftHand  -0.244104 0.0205437 5.32207
RightShoulder  4.97378 8.38814 35.8469
RightArm  -4.1935 -16.1364 31.5305
RightForeArm  5.40919 15.0493 6.11028
RightHand  -0.735449 0.134197 -15.4646
LeftUpLeg  -12.3092 7.27971 5.90993
LeftLeg  61.5907 3.83595 8.25679
LeftFoot  5.41644 0.114313 -1.04118
LeftToes  -7.82198e-011 2.46994e-011 -7.94165e-012
354
root  -58.9101 39.7765 -4.1711 -98.486 86.2932 -98.1224
RightUpLeg  -15.4104 -19.5791 5.18422
RightLeg  25.9326 -2.8609 -0.916027
RightFoot  -9.89411 -0.0104058 -4.43841
RightToes  -1.33073e-015 0 -3.6325e-017
Spine  16.4161 -1.94066 13.4071
Spine1  6.20453 -0.926806 4.60776
HEad  6.82721 -2.91382 -3.34453
LeftShoulder1  8.41725 -12.7301 -45.1898
LeftArm  -18.7237 17.3893 -24.7116
LeftForeArm  33.7661 -28.7264 -4.37149
LeftHand  -0.244104 0.0205437 5.32207
RightShoulder  5.08693 8.70509 35.6919
RightArm  -1.33358 -12.108 29.5736
RightForeArm  1.5005 17.8869 5.65733
RightHand  -1.12942 2.11864 -17.5873
LeftUpLeg  -17.2209 6.10926 5.04554
LeftLeg  62.8062 2.42725 5.77984
LeftFoot  2.62574 0.282704 -2.42749
LeftToes  -7.82198e-011 2.46994e-011 -7.94165e-012
355
root  -57.9938 39.9355 -4.08734 -105.362 86.6026 -105.281
RightUpLeg  -13.222 -18.2154 3.90837
RightLeg  24.7619 -4.40769 -0.528715
RightFoot  -10.9358 -0.0598019 -3.78615
RightToes  -1.33073e-015 0 -3.6325e-017
Spine  16.6358 -1.70653 13.585
Spine1  6.23661 -0.603276 3.98667
HEad  6.23147 -3.76984 -3.05675
LeftShoulder1  8.44455 -12.9649 -44.6693
LeftArm  -19.8678 15.7352 -24.5648
LeftForeArm  36.2159 -34.7 -5.65975
LeftHand  -0.244104 0.0205437 5.32207
RightShoulder  5.02951 8.68415 35.299
RightArm  -0.289899 -8.22988 28.2669
RightForeArm  0.0351055 20.4856 5.12728
RightHand  -1.4245 3.73249 -18.2574
LeftUpLeg  -21.5538 5.20097 4.04785
LeftLeg  60.9971 2.1097 4.69369
LeftFoot  1.01143 0.28776 -2.70074
LeftToes  -7.82198e-011 2.46994e-011 -7.94165e-012
356
root  -57.0966 40.0959 -4.00251 -108.349 87.1493 -108.501
RightUpLeg  -10.9898 -16.9323 2.58152
RightLeg  23.3061 -5.54918 0.0100131
RightFoot  -11.7748 -0.0902854 -2.7241
RightToes  -1.33073e-015 0 -3.6325e-017
Spine  17.3238 -1.34759 13.387
Spine1  5.82302 -0.127343 3.11514
HEad  5.55964 -4.54737 -2.82521
LeftShoulder1  8.39622 -13.1338 -43.929
LeftArm  -20.7002 14.2514 -24.835
LeftForeArm  39.8258 -40.5535 -7.03881
LeftHand  -0.244104 0.0205437 5.32207
RightShoulder  4.85405 8.40273 34.8094
RightArm  -0.656251 -4.60783 27.4086
RightForeArm  -1.33649 23.0814 5.05709
RightHand  -1.59192 4.63265 -18.5665
LeftUpLeg  -24.7553 5.09363 2.81136
LeftLeg  56.2574 2.87796 5.10875
LeftFoot  -0.398672 0.221523 -2.30063
LeftToes  -7.82198e-011 2.46994e-011 -7.94165e-012
357
root  -56.2132 40.2309 -3.92642 -105.664 87.7436 -106.09
RightUpLeg  -8.99146 -15.9232 1.5145
RightLeg  21.925 -6.33832 0.562219
RightFoot  -12.441 -0.10812 -2.44442
RightToes  -1.33073e-015 0 -3.6325e-017
Spine  18.2706 -0.936694 12.9962
Spine1  5.31215 0.36442 2.33817
HEad  4.7963 -5.00016 -2.70778
LeftShoulder1  8.38707 -13.2848 -43.4622
LeftArm  -21.0764 12.9218 -25.0024
LeftForeArm  43.942 -46.1829 -8.5818
LeftHand  -0.244104 0.0205437 5.32207
RightShoulder  4.69468 8.14076 34.3646
RightArm  -1.95312 -1.09325 26.7127
RightForeArm  -3.46717 25.4328 5.62003
RightHand  -1.73555 5.01393 -19.4737
LeftUpLeg  -26.5657 6.1907 1.53973
LeftLeg  48.2911 3.91216 5.12622
LeftFoot  -1.6925 0.241512 -2.73763
LeftToes  -7.82198e-011 2.46994e-011 -7.94165e-012
358
root  -55.3234 40.3077 -3.87866 -95.4684 88.0233 -96.4026
RightUpLeg  -7.38913 -15.0572 1.02159
RightLeg  20.7261 -6.77628 0.935895
RightFoot  -13.2391 -0.131146 -2.53301
RightToes  -1.33073e-015 0 -3.6325e-017
Spine  19.1053 -0.652747 12.8209
Spine1  4.88419 0.738479 1.56669
HEad  3.96685 -4.98324 -2.66208
LeftShoulder1  8.45585 -13.4449 -43.4014
LeftArm  -21.0111 11.8905 -24.8053
LeftForeArm  47.8014 -51.253 -10.2723
LeftHand  -0.244104 0.0205437 5.32207
RightShoulder  4.62061 8.04161 34.0724
RightArm  -2.80548 2.55203 26.0824
RightForeArm  -5.63447 27.2101 6.15444
RightHand  -1.92208 5.4585 -20.6499
LeftUpLeg  -27.3604 8.63972 0.226848
LeftLeg  37.6154 4.09036 3.76197
LeftFoot  -1.25225 0.275577 -3.04437
LeftToes  -7.82198e-011 2.46994e-011 -7.94165e-012
359
root  -54.4242 40.3206 -3.85401 -82.2465 87.9412 -83.8347
RightUpLeg  -6.13287 -14.8017 1.01377
RightLeg  19.8363 -6.3377 1.00238
RightFoot  -14.1952 -0.142211 -1.88986
RightToes  -1.33073e-015 0 -3.6325e-017
Spine  19.8625 -0.588281 12.744
Spine1  4.72256 0.962289 0.729958
HEad  2.83261 -4.52366 -2.5087
LeftShoulder1  8.53305 -13.5939 -43.417
LeftArm  -20.7897 11.1143 -24.5047
LeftForeArm  50.8641 -55.2572 -11.9111
LeftHand  -0.244104 0.0205437 5.32207
RightShoulder  4.63988 8.10702 34.0131
RightArm  -3.19654 6.25888 25.4857
RightForeArm  -6.05712 28.5836 6.50832
RightHand  -2.0922 6.03748 -21.3257
LeftUpLeg  -27.6565 12.3415 -1.49422
LeftLeg  26.0855 3.01071 2.04409
LeftFoot  0.447569 0.350667 -3.40785
LeftToes  -7.82198e-011 2.46994e-011 -7.94165e-012
360
root  -53.4929 40.2291 -3.8357 -69.1575 87.5807 -71.2046
RightUpLeg  -5.30817 -15.808 1.34445
RightLeg  20.1444 -4.69796 0.54461
RightFoot  -15.3689 -0.151378 -1.31433
RightToes  -1.33073e-015 0 -3.6325e-017
Spine  20.7367 -0.622796 12.4939
Spine1  5.01132 1.13291 0.0961298
HEad  1.42194 -3.84339 -2.13642
LeftShoulder1  8.58645 -13.7945 -43.1686
LeftArm  -20.5304 10.4046 -24.4492
LeftForeArm  52.7963 -57.6949 -13.0906
LeftHand  -0.244104 0.0205437 5.32207
RightShoulder  4.78062 8.42957 34.1114
RightArm  -3.52593 9.51056 25.0307
RightForeArm  -4.9983 29.9288 6.78835
RightHand  -2.15054 6.29627 -21.4312
LeftUpLeg  -27.3821 15.7842 -2.91153
LeftLeg  15.991 2.49716 0.572598
LeftFoot  1.60121 0.552341 -4.93726
LeftToes  -7.82198e-011 2.46994e-011 -7.94165e-012
361
root  -52.5128 40.0112 -3.82367 -54.9556 86.9477 -57.0315
RightUpLeg  -4.72287 -17.1796 1.82848
RightLeg  21.8616 -2.80432 -0.524384
RightFoot  -16.96 -0.211532 -1.92867
RightToes  -1.33073e-015 0 -3.6325e-017
Spine  21.8211 -0.546712 11.7441
Spine1  5.47715 1.32784 -0.142858
HEad  0.293553 -3.05861 -1.59534
LeftShoulder1  8.66399 -14.1596 -42.6261
LeftArm  -20.0823 9.77838 -24.6669
LeftForeArm  53.4654 -58.2191 -13.3533
LeftHand  -0.244104 0.0205437 5.32207
RightShoulder  5.07418 9.13888 34.1858
RightArm  -3.68417 11.9694 24.9198
RightForeArm  -3.83622 30.9348 6.98301
RightHand  -2.12208 6.16867 -21.3811
LeftUpLeg  -26.0258 14.4314 -1.40469
LeftLeg  9.36429 7.37933 -1.53173
LeftFoot  2.96628 0.591768 -4.89556
LeftToes  -7.82198e-011 2.46994e-011 -7.94165e-012
362
root  -51.5197 39.6845 -3.82785 -43.4948 86.3369 -45.3331
RightUpLeg  -4.47333 -16.1128 1.92402
RightLeg  25.0289 -3.03536 -1.89078
RightFoot  -18.985 -0.231979 -1.66497
RightToes  -1.33073e-015 0 -3.6325e-017
Spine  23.3539 -0.423973 10.0998
Spine1  5.67428 1.36744 0.106609
HEad  -0.165792 -2.06435 -1.11311
LeftShoulder1  8.79699 -14.6455 -42.0846
LeftArm  -19.3185 9.10677 -24.9039
LeftForeArm  52.8806 -56.6642 -12.516
LeftHand  -0.244104 0.0205437 5.32207
RightShoulder  5.45735 10.1026 34.1587
RightArm  -2.98521 14.0568 25.2204
RightForeArm  -3.17031 30.998 6.96431
RightHand  -2.09341 6.04808 -21.3154
LeftUpLeg  -25.5472 12.7065 -0.293938
LeftLeg  8.24969 11.35 -2.68159
LeftFoot  5.77662 0.0122696 -0.418347
LeftToes  -7.82198e-011 2.46994e-011 -7.94165e-012
363
root  -50.5753 39.3034 -3.86569 -36.8904 86.1324 -38.4832
RightUpLeg  -5.64401 -13.3313 1.39389
RightLeg  31.0275 -4.50478 -3.16342
RightFoot  -20.0996 0.0139726 2.01973
RightToes  -1.33073e-015 0 -3.6325e-017
Spine  25.38 -0.371298 7.90936
Spine1  5.49081 1.00712 0.971261
HEad  -0.718697 -0.945322 -0.752686
LeftShoulder1  8.97143 -15.115 -41.8166
LeftArm  -18.2075 7.4793 -24.9441
LeftForeArm  51.0345 -52.924 -10.7939
LeftHand  -0.244104 0.0205437 5.32207
RightShoulder  5.77274 10.9439 34.0054
RightArm  -1.32416 16.446 25.8438
RightForeArm  -2.88819 30.2759 6.76469
RightHand  -2.06498 5.99806 -21.1248
LeftUpLeg  -27.6906 17.453 -3.74915
LeftLeg  12.7058 5.93242 -0.86003
LeftFoot  8.38098 -1.03687 5.72525
LeftToes  -7.82198e-011 2.46994e-011 -7.94165e-012
